<svg viewBox="0 0 1200 800" xmlns="http://www.w3.org/2000/svg">
  <!-- Background -->
  <rect width="1200" height="800" fill="#0a1628"/>
  
  <!-- Title -->
  <text x="600" y="40" text-anchor="middle" fill="#fbbf24" font-size="28" font-weight="bold">
    Virtual Megastructure: Geometric Pattern Sequence
  </text>
  
  <!-- Subtitle -->
  <text x="600" y="70" text-anchor="middle" fill="#94a3b8" font-size="16">
    What alien astronomers would observe during Phase 2 of the project
  </text>
  
  <!-- Time sequence panels -->
  
  <!-- Panel 1: Triangle Pattern -->
  <g>
    <rect x="50" y="120" width="250" height="300" fill="#1e3a8a" stroke="#3b82f6" stroke-width="2" rx="10"/>
    <text x="175" y="145" text-anchor="middle" fill="#fbbf24" font-size="18" font-weight="bold">
      SEQUENCE 1: TRIANGLE
    </text>
    <text x="175" y="165" text-anchor="middle" fill="#94a3b8" font-size="14">
      Time 0-10 minutes
    </text>
    
    <!-- Sun with triangle shadow -->
    <circle cx="175" cy="250" r="60" fill="#fbbf24"/>
    <!-- Triangle shadow -->
    <polygon points="165,230 185,230 175,210" fill="#0a1628"/>
    
    <!-- Light curve for triangle -->
    <rect x="70" y="320" width="210" height="80" fill="#0f172a" stroke="#374151" stroke-width="1" rx="5"/>
    <text x="175" y="340" text-anchor="middle" fill="#94a3b8" font-size="12">Brightness Over Time</text>
    
    <!-- Triangle wave pattern -->
    <polyline points="80,370 120,370 140,350 160,370 200,370 240,370 270,370" 
              fill="none" stroke="#fbbf24" stroke-width="2"/>
    
    <text x="175" y="390" text-anchor="middle" fill="#94a3b8" font-size="11">
      Sharp triangular dimming pattern
    </text>
  </g>
  
  <!-- Panel 2: Rectangle Pattern -->
  <g>
    <rect x="350" y="120" width="250" height="300" fill="#1e3a8a" stroke="#3b82f6" stroke-width="2" rx="10"/>
    <text x="475" y="145" text-anchor="middle" fill="#fbbf24" font-size="18" font-weight="bold">
      SEQUENCE 2: RECTANGLE
    </text>
    <text x="475" y="165" text-anchor="middle" fill="#94a3b8" font-size="14">
      Time 10-20 minutes
    </text>
    
    <!-- Sun with rectangle shadow -->
    <circle cx="475" cy="250" r="60" fill="#fbbf24"/>
    <!-- Rectangle shadow -->
    <rect x="455" y="235" width="40" height="15" fill="#0a1628"/>
    
    <!-- Light curve for rectangle -->
    <rect x="370" y="320" width="210" height="80" fill="#0f172a" stroke="#374151" stroke-width="1" rx="5"/>
    <text x="475" y="340" text-anchor="middle" fill="#94a3b8" font-size="12">Brightness Over Time</text>
    
    <!-- Rectangle wave pattern -->
    <polyline points="380,370 420,370 420,350 520,350 520,370 560,370 570,370" 
              fill="none" stroke="#fbbf24" stroke-width="2"/>
    
    <text x="475" y="390" text-anchor="middle" fill="#94a3b8" font-size="11">
      Flat-top rectangular dimming
    </text>
  </g>
  
  <!-- Panel 3: Cross Pattern -->
  <g>
    <rect x="650" y="120" width="250" height="300" fill="#1e3a8a" stroke="#3b82f6" stroke-width="2" rx="10"/>
    <text x="775" y="145" text-anchor="middle" fill="#fbbf24" font-size="18" font-weight="bold">
      SEQUENCE 3: CROSS
    </text>
    <text x="775" y="165" text-anchor="middle" fill="#94a3b8" font-size="14">
      Time 20-30 minutes
    </text>
    
    <!-- Sun with cross shadow -->
    <circle cx="775" cy="250" r="60" fill="#fbbf24"/>
    <!-- Cross shadow -->
    <rect x="770" y="235" width="10" height="30" fill="#0a1628"/>
    <rect x="760" y="245" width="30" height="10" fill="#0a1628"/>
    
    <!-- Light curve for cross -->
    <rect x="670" y="320" width="210" height="80" fill="#0f172a" stroke="#374151" stroke-width="1" rx="5"/>
    <text x="775" y="340" text-anchor="middle" fill="#94a3b8" font-size="12">Brightness Over Time</text>
    
    <!-- Cross dimming pattern - double dip -->
    <polyline points="680,370 720,370 740,350 760,370 780,350 800,370 840,370 860,370" 
              fill="none" stroke="#fbbf24" stroke-width="2"/>
    
    <text x="775" y="390" text-anchor="middle" fill="#94a3b8" font-size="11">
      Double-dip cross pattern
    </text>
  </g>
  
  <!-- Panel 4: Normal State -->
  <g>
    <rect x="950" y="120" width="200" height="300" fill="#1e3a8a" stroke="#3b82f6" stroke-width="2" rx="10"/>
    <text x="1050" y="145" text-anchor="middle" fill="#fbbf24" font-size="18" font-weight="bold">
      SEQUENCE 4: NORMAL
    </text>
    <text x="1050" y="165" text-anchor="middle" fill="#94a3b8" font-size="14">
      Time 30-40 minutes
    </text>
    
    <!-- Normal sun -->
    <circle cx="1050" cy="250" r="60" fill="#fbbf24"/>
    
    <!-- Light curve for normal -->
    <rect x="970" y="320" width="160" height="80" fill="#0f172a" stroke="#374151" stroke-width="1" rx="5"/>
    <text x="1050" y="340" text-anchor="middle" fill="#94a3b8" font-size="12">Brightness Over Time</text>
    
    <!-- Flat line -->
    <line x1="980" y1="365" x2="1120" y2="365" stroke="#fbbf24" stroke-width="2"/>
    
    <text x="1050" y="390" text-anchor="middle" fill="#94a3b8" font-size="11">
      Steady baseline brightness
    </text>
  </g>
  
  <!-- Combined light curve showing full sequence -->
  <g>
    <rect x="100" y="480" width="1000" height="200" fill="#0f172a" stroke="#374151" stroke-width="2" rx="10"/>
    <text x="600" y="510" text-anchor="middle" fill="#fbbf24" font-size="20" font-weight="bold">
      Complete 40-Minute Observation Cycle
    </text>
    <text x="600" y="535" text-anchor="middle" fill="#94a3b8" font-size="14">
      What alien transit photometry would record
    </text>
    
    <!-- Time axis -->
    <line x1="150" y1="640" x2="1050" y2="640" stroke="#374151" stroke-width="1"/>
    <text x="200" y="660" text-anchor="middle" fill="#94a3b8" font-size="12">0 min</text>
    <text x="375" y="660" text-anchor="middle" fill="#94a3b8" font-size="12">10 min</text>
    <text x="550" y="660" text-anchor="middle" fill="#94a3b8" font-size="12">20 min</text>
    <text x="725" y="660" text-anchor="middle" fill="#94a3b8" font-size="12">30 min</text>
    <text x="900" y="660" text-anchor="middle" fill="#94a3b8" font-size="12">40 min</text>
    
    <!-- Brightness axis label -->
    <text x="130" y="590" text-anchor="middle" fill="#94a3b8" font-size="12" transform="rotate(-90 130 590)">
      Brightness
    </text>
    
    <!-- Combined light curve -->
    <!-- Triangle phase -->
    <polyline points="150,600 200,600 240,560 280,600 330,600" 
              fill="none" stroke="#fbbf24" stroke-width="3"/>
    <!-- Rectangle phase -->
    <polyline points="330,600 375,600 375,570 500,570 500,600 545,600" 
              fill="none" stroke="#fbbf24" stroke-width="3"/>
    <!-- Circle phase -->
    <polyline points="545,600 620,600 640,570 660,600 680,570 700,600 775,600" 
              fill="none" stroke="#fbbf24" stroke-width="3"/>
    <!-- Normal phase -->
    <line x1="775" y1="600" x2="1050" y2="600" stroke="#fbbf24" stroke-width="3"/>
    
    <!-- Pattern labels -->
    <text x="240" y="550" text-anchor="middle" fill="#10b981" font-size="12" font-weight="bold">△</text>
    <text x="450" y="550" text-anchor="middle" fill="#10b981" font-size="12" font-weight="bold">□</text>
    <text x="650" y="550" text-anchor="middle" fill="#10b981" font-size="12" font-weight="bold">✕</text>
    <text x="900" y="580" text-anchor="middle" fill="#6b7280" font-size="12">Normal</text>
  </g>
  
  <!-- Bottom explanation -->
  <text x="600" y="720" text-anchor="middle" fill="#94a3b8" font-size="16" font-style="italic">
    Coordinated radio transmissions from HAARP + Allen Telescope Array create geometric interference patterns
  </text>
  <text x="600" y="745" text-anchor="middle" fill="#6b7280" font-size="14">
    Obviously artificial sequence proves technological intelligence - no natural process creates geometric transit patterns
  </text>
  
  <!-- Arrows showing sequence -->
  <defs>
    <marker id="arrowhead" markerWidth="10" markerHeight="7" 
            refX="9" refY="3.5" orient="auto">
      <polygon points="0 0, 10 3.5, 0 7" fill="#10b981"/>
    </marker>
  </defs>
  
  <line x1="300" y1="280" x2="340" y2="280" stroke="#10b981" stroke-width="2" marker-end="url(#arrowhead)"/>
  <line x1="600" y1="280" x2="640" y2="280" stroke="#10b981" stroke-width="2" marker-end="url(#arrowhead)"/>
  <line x1="900" y1="280" x2="940" y2="280" stroke="#10b981" stroke-width="2" marker-end="url(#arrowhead)"/>
</svg>